{"title":"Geordie Shore Big Birthday Battle S01E06 1080P WEB-DL AAC2 0 H 2","uid":14933844,"size":1628630737,"categoryP":"video","categoryS":"hd___tv_shows","magnet":"?xt=urn:btih:5550827e1e9040eeaf6a3c8c5555422687f6d656&amp;dn=Geordie+Shore+Big+Birthday+Battle+S01E06+1080P+WEB-DL+AAC2+0+H+2&amp;tr=udp%3A%2F%2Ftracker.leechers-paradise.org%3A6969&amp;tr=udp%3A%2F%2Fzer0day.ch%3A1337&amp;tr=udp%3A%2F%2Fopen.demonii.com%3A1337&amp;tr=udp%3A%2F%2Ftracker.coppersurfer.tk%3A6969&amp;tr=udp%3A%2F%2Fexodus.desync.com%3A6969","seeders":8,"leechers":0,"uploader":"jmanwf","files":1,"time":1465981564,"description":"Description\r\nIt's the final! But with no Gaz and Charlotte upset, both teams now need new leaders. Anna has a big surprise after the final parties... but who has won the big birthday battle?\r\n\r\n\r\nVideo\r\nID : 2\r\nFormat : AVC\r\nFormat/Info : Advanced Video Codec\r\nFormat profile :   \r\nFormat settings, CABAC : Yes\r\nFormat settings, ReFrames : 4 frames\r\nCodec ID : avc1\r\nCodec ID/Info : Advanced Video Coding\r\nDuration : 42mn 44s\r\nBit rate : 4 951 Kbps\r\nWidth : 1 920 pixels\r\nHeight : 1 080 pixels\r\nDisplay aspect ratio : 16:9\r\nFrame rate mode : Constant\r\nFrame rate : 25.000 fps\r\nColor space : YUV\r\nChroma subsampling : 4:2:0\r\nBit depth : 8 bits\r\nScan type : Progressive\r\nBits/(Pixel*Frame) : 0.096\r\nStream size : 1.48 GiB (97%)\r\nLanguage : English\r\nEncoded date : UTC 2016-06-15 01:38:45\r\nTagged date : UTC 2016-06-15 01:41:26\r\nColor range : Limited\r\nColor primaries : BT.709\r\nTransfer characteristics : BT.709\r\nMatrix coefficients : BT.709\r\n\r\nAudio\r\nID : 1\r\nFormat : AAC\r\nFormat/Info : Advanced Audio Codec\r\nFormat profile : LC\r\nCodec ID : 40\r\nDuration : 42mn 44s\r\nBit rate mode : Variable\r\nBit rate : 126 Kbps\r\nMaximum bit rate : 219 Kbps\r\nChannel(s) : 2 channels\r\nChannel positions : Front: L R\r\nSampling rate : 48.0 KHz\r\nFrame rate : 46.875 fps (1024 spf)\r\nCompression mode : Lossy\r\nStream size : 38.4 MiB (2%)\r\nLanguage : English\r\nDefault : Yes\r\nAlternate group : 1\r\nEncoded date : UTC 2016-06-15 01:38:45\r\nTagged date : UTC 2016-06-15 01:41:26","torrent":{"xt":"urn:btih:5550827e1e9040eeaf6a3c8c5555422687f6d656","amp;dn":"Geordie+Shore+Big+Birthday+Battle+S01E06+1080P+WEB-DL+AAC2+0+H+2","amp;tr":["udp%3A%2F%2Ftracker.leechers-paradise.org%3A6969","udp%3A%2F%2Fzer0day.ch%3A1337","udp%3A%2F%2Fopen.demonii.com%3A1337","udp%3A%2F%2Ftracker.coppersurfer.tk%3A6969","udp%3A%2F%2Fexodus.desync.com%3A6969"],"infoHash":"5550827e1e9040eeaf6a3c8c5555422687f6d656","infoHashBuffer":{"type":"Buffer","data":[85,80,130,126,30,144,64,238,175,106,60,140,85,85,66,38,135,246,214,86]},"announce":[],"urlList":[]}}